<mxfile host="app.diagrams.net" agent="Mozilla/5.0 (Windows NT 10.0; Win64; x64) AppleWebKit/537.36 (KHTML, like Gecko) Chrome/140.0.0.0 Safari/537.36" version="28.2.6">
  <diagram name="PÃ¡gina-1" id="IFGHyDwvx_VGOPaaDv2B">
    <mxGraphModel dx="2013" dy="755" grid="1" gridSize="10" guides="1" tooltips="1" connect="1" arrows="1" fold="1" page="1" pageScale="1" pageWidth="827" pageHeight="1169" math="0" shadow="0">
      <root>
        <mxCell id="0" />
        <mxCell id="1" parent="0" />
        <mxCell id="ezBcjOUOekwFjwQ4SXCX-1" value="&lt;span style=&quot;font-size: 12px;&quot;&gt;DEPARTAMENTO&lt;/span&gt;" style="swimlane;childLayout=stackLayout;horizontal=1;startSize=50;horizontalStack=0;rounded=1;fontSize=14;fontStyle=0;strokeWidth=2;resizeParent=0;resizeLast=1;shadow=0;dashed=0;align=center;arcSize=4;whiteSpace=wrap;html=1;" vertex="1" parent="1">
          <mxGeometry x="120" y="140" width="160" height="120" as="geometry" />
        </mxCell>
        <mxCell id="ezBcjOUOekwFjwQ4SXCX-2" value="&lt;u&gt;CodDepartamento&lt;/u&gt;&lt;div&gt;NomeDepartamento&lt;/div&gt;" style="align=left;strokeColor=none;fillColor=none;spacingLeft=4;spacingRight=4;fontSize=12;verticalAlign=top;resizable=0;rotatable=0;part=1;html=1;whiteSpace=wrap;" vertex="1" parent="ezBcjOUOekwFjwQ4SXCX-1">
          <mxGeometry y="50" width="160" height="70" as="geometry" />
        </mxCell>
        <mxCell id="ezBcjOUOekwFjwQ4SXCX-3" value="&lt;span style=&quot;font-size: 12px;&quot;&gt;TECNICO&lt;/span&gt;" style="swimlane;childLayout=stackLayout;horizontal=1;startSize=50;horizontalStack=0;rounded=1;fontSize=14;fontStyle=0;strokeWidth=2;resizeParent=0;resizeLast=1;shadow=0;dashed=0;align=center;arcSize=4;whiteSpace=wrap;html=1;" vertex="1" parent="1">
          <mxGeometry x="-90" y="150" width="160" height="140" as="geometry" />
        </mxCell>
        <mxCell id="ezBcjOUOekwFjwQ4SXCX-25" value="" style="endArrow=classic;html=1;rounded=0;entryX=0;entryY=0.25;entryDx=0;entryDy=0;" edge="1" parent="ezBcjOUOekwFjwQ4SXCX-3" target="ezBcjOUOekwFjwQ4SXCX-2">
          <mxGeometry width="50" height="50" relative="1" as="geometry">
            <mxPoint x="120" y="80" as="sourcePoint" />
            <mxPoint x="170" y="30" as="targetPoint" />
          </mxGeometry>
        </mxCell>
        <mxCell id="ezBcjOUOekwFjwQ4SXCX-4" value="&lt;u&gt;NumTecnico&lt;/u&gt;&lt;div&gt;&lt;font style=&quot;color: rgb(153, 0, 0);&quot;&gt;CodDepartamento&lt;/font&gt;&lt;/div&gt;&lt;div&gt;&lt;span style=&quot;background-color: transparent; color: light-dark(rgb(0, 0, 0), rgb(255, 255, 255));&quot;&gt;NomeTecnico&lt;/span&gt;&lt;div&gt;EmailTecnico&lt;/div&gt;&lt;div&gt;PassTecnico&lt;/div&gt;&lt;/div&gt;" style="align=left;strokeColor=none;fillColor=none;spacingLeft=4;spacingRight=4;fontSize=12;verticalAlign=top;resizable=0;rotatable=0;part=1;html=1;whiteSpace=wrap;" vertex="1" parent="ezBcjOUOekwFjwQ4SXCX-3">
          <mxGeometry y="50" width="160" height="90" as="geometry" />
        </mxCell>
        <mxCell id="ezBcjOUOekwFjwQ4SXCX-7" value="&lt;span style=&quot;font-size: 12px;&quot;&gt;CLIENTE&lt;/span&gt;" style="swimlane;childLayout=stackLayout;horizontal=1;startSize=50;horizontalStack=0;rounded=1;fontSize=14;fontStyle=0;strokeWidth=2;resizeParent=0;resizeLast=1;shadow=0;dashed=0;align=center;arcSize=4;whiteSpace=wrap;html=1;" vertex="1" parent="1">
          <mxGeometry x="400" y="110" width="160" height="130" as="geometry" />
        </mxCell>
        <mxCell id="ezBcjOUOekwFjwQ4SXCX-28" value="" style="endArrow=classic;html=1;rounded=0;entryX=-0.012;entryY=0.143;entryDx=0;entryDy=0;entryPerimeter=0;" edge="1" parent="ezBcjOUOekwFjwQ4SXCX-7" target="ezBcjOUOekwFjwQ4SXCX-10">
          <mxGeometry width="50" height="50" relative="1" as="geometry">
            <mxPoint x="110" y="80" as="sourcePoint" />
            <mxPoint x="240" y="60" as="targetPoint" />
          </mxGeometry>
        </mxCell>
        <mxCell id="ezBcjOUOekwFjwQ4SXCX-8" value="&lt;u&gt;EmailCliente&lt;/u&gt;&lt;div&gt;&lt;font style=&quot;color: rgb(153, 0, 0);&quot;&gt;CodTipoCliente&lt;/font&gt;&lt;br&gt;&lt;div&gt;NomeCliente&lt;/div&gt;&lt;div&gt;PassCliente&lt;/div&gt;&lt;div&gt;TelefCliente&lt;/div&gt;&lt;/div&gt;" style="align=left;strokeColor=none;fillColor=none;spacingLeft=4;spacingRight=4;fontSize=12;verticalAlign=top;resizable=0;rotatable=0;part=1;html=1;whiteSpace=wrap;" vertex="1" parent="ezBcjOUOekwFjwQ4SXCX-7">
          <mxGeometry y="50" width="160" height="80" as="geometry" />
        </mxCell>
        <mxCell id="ezBcjOUOekwFjwQ4SXCX-9" value="&lt;span style=&quot;font-size: 12px;&quot;&gt;TIPO_CLIENTE&lt;/span&gt;" style="swimlane;childLayout=stackLayout;horizontal=1;startSize=50;horizontalStack=0;rounded=1;fontSize=14;fontStyle=0;strokeWidth=2;resizeParent=0;resizeLast=1;shadow=0;dashed=0;align=center;arcSize=4;whiteSpace=wrap;html=1;" vertex="1" parent="1">
          <mxGeometry x="630" y="110" width="160" height="120" as="geometry" />
        </mxCell>
        <mxCell id="ezBcjOUOekwFjwQ4SXCX-10" value="&lt;u&gt;CodTipoCliente&lt;/u&gt;&lt;div&gt;TipoCliente&lt;/div&gt;" style="align=left;strokeColor=none;fillColor=none;spacingLeft=4;spacingRight=4;fontSize=12;verticalAlign=top;resizable=0;rotatable=0;part=1;html=1;whiteSpace=wrap;" vertex="1" parent="ezBcjOUOekwFjwQ4SXCX-9">
          <mxGeometry y="50" width="160" height="70" as="geometry" />
        </mxCell>
        <mxCell id="ezBcjOUOekwFjwQ4SXCX-11" value="&lt;span style=&quot;font-size: 12px;&quot;&gt;MSAS&lt;/span&gt;" style="swimlane;childLayout=stackLayout;horizontal=1;startSize=50;horizontalStack=0;rounded=1;fontSize=14;fontStyle=0;strokeWidth=2;resizeParent=0;resizeLast=1;shadow=0;dashed=0;align=center;arcSize=4;whiteSpace=wrap;html=1;" vertex="1" parent="1">
          <mxGeometry x="30" y="500" width="160" height="120" as="geometry" />
        </mxCell>
        <mxCell id="ezBcjOUOekwFjwQ4SXCX-12" value="DataMsg&lt;div&gt;Mensagem&lt;/div&gt;" style="align=left;strokeColor=none;fillColor=none;spacingLeft=4;spacingRight=4;fontSize=12;verticalAlign=top;resizable=0;rotatable=0;part=1;html=1;whiteSpace=wrap;" vertex="1" parent="ezBcjOUOekwFjwQ4SXCX-11">
          <mxGeometry y="50" width="160" height="70" as="geometry" />
        </mxCell>
        <mxCell id="ezBcjOUOekwFjwQ4SXCX-13" value="&lt;span style=&quot;font-size: 12px;&quot;&gt;TIPO_PROBLEMA&lt;/span&gt;" style="swimlane;childLayout=stackLayout;horizontal=1;startSize=50;horizontalStack=0;rounded=1;fontSize=14;fontStyle=0;strokeWidth=2;resizeParent=0;resizeLast=1;shadow=0;dashed=0;align=center;arcSize=4;whiteSpace=wrap;html=1;" vertex="1" parent="1">
          <mxGeometry x="460" y="510" width="160" height="120" as="geometry" />
        </mxCell>
        <mxCell id="ezBcjOUOekwFjwQ4SXCX-14" value="&lt;u&gt;CodTipoProb&lt;/u&gt;&lt;div&gt;TipoProb&lt;/div&gt;" style="align=left;strokeColor=none;fillColor=none;spacingLeft=4;spacingRight=4;fontSize=12;verticalAlign=top;resizable=0;rotatable=0;part=1;html=1;whiteSpace=wrap;" vertex="1" parent="ezBcjOUOekwFjwQ4SXCX-13">
          <mxGeometry y="50" width="160" height="70" as="geometry" />
        </mxCell>
        <mxCell id="ezBcjOUOekwFjwQ4SXCX-15" value="&lt;span style=&quot;font-size: 12px;&quot;&gt;TIPO_URGENCIA&lt;/span&gt;" style="swimlane;childLayout=stackLayout;horizontal=1;startSize=50;horizontalStack=0;rounded=1;fontSize=14;fontStyle=0;strokeWidth=2;resizeParent=0;resizeLast=1;shadow=0;dashed=0;align=center;arcSize=4;whiteSpace=wrap;html=1;" vertex="1" parent="1">
          <mxGeometry x="650" y="360" width="160" height="120" as="geometry" />
        </mxCell>
        <mxCell id="ezBcjOUOekwFjwQ4SXCX-16" value="&lt;u&gt;CodTipoUrge&lt;/u&gt;&lt;div&gt;TipoUrge&lt;/div&gt;" style="align=left;strokeColor=none;fillColor=none;spacingLeft=4;spacingRight=4;fontSize=12;verticalAlign=top;resizable=0;rotatable=0;part=1;html=1;whiteSpace=wrap;" vertex="1" parent="ezBcjOUOekwFjwQ4SXCX-15">
          <mxGeometry y="50" width="160" height="70" as="geometry" />
        </mxCell>
        <mxCell id="ezBcjOUOekwFjwQ4SXCX-19" value="&lt;span style=&quot;font-size: 12px;&quot;&gt;TICKET&lt;/span&gt;" style="swimlane;childLayout=stackLayout;horizontal=1;startSize=50;horizontalStack=0;rounded=1;fontSize=14;fontStyle=0;strokeWidth=2;resizeParent=0;resizeLast=1;shadow=0;dashed=0;align=center;arcSize=4;whiteSpace=wrap;html=1;" vertex="1" parent="1">
          <mxGeometry x="650" y="490" width="160" height="120" as="geometry" />
        </mxCell>
        <mxCell id="ezBcjOUOekwFjwQ4SXCX-20" value="&lt;u&gt;IdTicket&lt;/u&gt;&lt;div&gt;DataTicket&lt;/div&gt;&lt;div&gt;Resolvido ?&lt;/div&gt;" style="align=left;strokeColor=none;fillColor=none;spacingLeft=4;spacingRight=4;fontSize=12;verticalAlign=top;resizable=0;rotatable=0;part=1;html=1;whiteSpace=wrap;" vertex="1" parent="ezBcjOUOekwFjwQ4SXCX-19">
          <mxGeometry y="50" width="160" height="70" as="geometry" />
        </mxCell>
      </root>
    </mxGraphModel>
  </diagram>
</mxfile>
